<svg xmlns="http://www.w3.org/2000/svg" width="14.001" height="14" viewBox="0 0 14.001 14">
  <path id="Icon_ionic-ios-call" data-name="Icon ionic-ios-call" d="M18.087,15.465a11.76,11.76,0,0,0-2.457-1.644c-.736-.354-1.006-.346-1.527.029-.434.313-.714.605-1.214.5a7.24,7.24,0,0,1-2.438-1.8,7.188,7.188,0,0,1-1.8-2.438c-.106-.5.186-.78.5-1.214.375-.521.386-.791.029-1.527A11.528,11.528,0,0,0,7.528,4.906c-.536-.536-.656-.419-.951-.313a5.413,5.413,0,0,0-.871.463,2.628,2.628,0,0,0-1.046,1.1c-.208.448-.448,1.283.776,3.463a19.321,19.321,0,0,0,3.4,4.531h0l0,0,0,0h0a19.4,19.4,0,0,0,4.531,3.4c2.18,1.225,3.014.984,3.463.776a2.583,2.583,0,0,0,1.1-1.046,5.413,5.413,0,0,0,.463-.871C18.506,16.121,18.626,16,18.087,15.465Z" transform="translate(-4.49 -4.502)" fill="#c8c8c8"/>
</svg>
